<svg version="1.1" xmlns="http://www.w3.org/2000/svg" xmlns:xlink="http://www.w3.org/1999/xlink" width="420.26111" height="292.78658" viewBox="0,0,420.26111,292.78658"><defs><linearGradient x1="79.71516" y1="59.14759" x2="68.70256" y2="59.16719" gradientUnits="userSpaceOnUse" id="color-1"><stop offset="0" stop-color="#ffb900"/><stop offset="1" stop-color="#fffb00"/></linearGradient></defs><g transform="translate(-27.46091,-27.25)"><g data-paper-data="{&quot;isPaintingLayer&quot;:true}" fill-rule="nonzero" stroke-linejoin="miter" stroke-miterlimit="10" stroke-dasharray="" stroke-dashoffset="0" style="mix-blend-mode: normal"><g><g stroke="none" stroke-linecap="butt"><path d="M138.12658,91.20469l174.25761,-0.26179l0.14783,85.47337l-174.25761,0.26179z" fill="#20457d" stroke-width="0"/><text transform="translate(296.53258,95.12696) rotate(-179.94287) scale(0.14041,0.14041)" font-size="40" xml:space="preserve" fill="#ffffff" fill-rule="nonzero" stroke="none" stroke-width="1" stroke-linecap="butt" stroke-linejoin="miter" stroke-miterlimit="10" stroke-dasharray="" stroke-dashoffset="0" font-family="Sans Serif" font-weight="normal" text-anchor="start" style="mix-blend-mode: normal"><tspan x="0" dy="0">D13 3V3 REF A0 A1 A2 A3 A4 A5 A6 A7 5V RST GND VIN</tspan></text><text transform="translate(150.30304,172.46814) rotate(0.07957) scale(0.14041,0.14041)" font-size="40" xml:space="preserve" fill="#ffffff" fill-rule="nonzero" stroke="none" stroke-width="1" stroke-linecap="butt" stroke-linejoin="miter" stroke-miterlimit="10" stroke-dasharray="" stroke-dashoffset="0" font-family="Sans Serif" font-weight="normal" text-anchor="start" style="mix-blend-mode: normal"><tspan x="0" dy="0">TX1 RX0 RST GND D2 D3 D4 D5 D6 D7 D8 D9 D10 D11 D12</tspan></text><text transform="translate(274.25865,155.558) rotate(-89.65235) scale(0.30572,0.30572)" font-size="40" xml:space="preserve" fill="#ffffff" fill-rule="nonzero" stroke="none" stroke-width="1" stroke-linecap="butt" stroke-linejoin="miter" stroke-miterlimit="10" stroke-dasharray="" stroke-dashoffset="0" font-family="Sans Serif" font-weight="normal" text-anchor="start" style="mix-blend-mode: normal"><tspan x="0" dy="0">Arduino</tspan><tspan x="0" dy="46.150000000000006px">  Nano</tspan></text></g><g stroke="#000000"><path d="M131.45405,147.2641l-0.1771,-25.20903l39.18033,-0.27525l0.17711,25.20904z" fill="#717171" stroke-width="0.5" stroke-linecap="butt"/><path d="M152.27713,127.74604l-11.50697,0.06387l-0.0181,-2.34579l11.54149,-0.08107" fill="none" stroke-width="1" stroke-linecap="round"/><path d="M131.54483,130.83268l17.02143,-0.03406l0.03873,8.32992l-16.97004,0.09419" data-paper-data="{&quot;index&quot;:null}" fill="none" stroke-width="1" stroke-linecap="round"/><path d="M152.31331,144.45267l-11.50697,0.06386l-0.01811,-2.34579l11.54149,-0.08107" fill="none" stroke-width="1" stroke-linecap="round"/><path d="M163.89993,143.01438l-0.21206,-5.29584l-3.65301,0.02028l-0.0306,-4.74678l3.65522,-0.38769l-0.02535,-4.56626" fill="none" stroke-width="1" stroke-linecap="round"/></g><path d="M226.95842,135.98205l-21.79763,21.54818l-22.0695,-22.32499l21.79764,-21.54818z" fill="#000000" stroke="none" stroke-width="0" stroke-linecap="butt"/><g stroke="none" stroke-width="0" stroke-linecap="butt"><path d="M257.92049,146.20422l-10.95868,-0.06648l0.13218,-21.78843l10.95868,0.06648z" fill="#737373"/><path d="M255.10134,143.35064l-5.5438,-0.03363l0.09542,-15.72892l5.5438,0.03363z" fill="#fff7a0"/></g></g><g stroke="none" stroke-linecap="butt"><path d="M447.72202,250.08149l-83.52822,0.55474l-0.66579,-100.24779l83.52822,-0.55474z" fill="#0e246f" stroke-width="0"/><path d="M433.79824,233.1132l-53.94208,0.35825l-0.423,-63.69064l53.94208,-0.35826z" fill="#000000" stroke-width="NaN"/><path d="M447.39984,226.03609l-13.40167,0.089l-0.33235,-50.04265l13.40166,-0.08901z" fill="#ffbb00" stroke-width="0"/><path d="M447.17732,216.99616l-13.56414,0.09008l-0.21263,-32.01654l13.56414,-0.09008z" fill="#000000" stroke-width="0"/><text transform="translate(372.7947,237.76966) rotate(-90.3809) scale(0.13989,0.13989)" font-size="40" xml:space="preserve" fill="#ffffff" fill-rule="nonzero" stroke="none" stroke-width="1" stroke-linecap="butt" stroke-linejoin="miter" stroke-miterlimit="10" stroke-dasharray="" stroke-dashoffset="0" font-family="Sans Serif" font-weight="normal" text-anchor="start" style="mix-blend-mode: normal"><tspan x="0" dy="0">GND VCC SCL SDA RES DC CS</tspan></text><path d="M370.92909,241.68165c1.74979,-0.01162 3.17795,1.43382 3.18987,3.22848c0.01192,1.79466 -1.39691,3.25895 -3.14671,3.27056c-1.74979,0.01162 -3.17795,-1.43382 -3.18986,-3.22848c-0.01192,-1.79466 1.39691,-3.25895 3.1467,-3.27057z" fill="#ffffff" stroke-width="0"/><path d="M370.2273,152.32047c1.74979,-0.01162 3.17795,1.43382 3.18986,3.22848c0.01192,1.79466 -1.39691,3.25895 -3.1467,3.27057c-1.74979,0.01162 -3.17795,-1.43382 -3.18986,-3.22848c-0.01192,-1.79466 1.39691,-3.25895 3.1467,-3.27057z" fill="#ffffff" stroke-width="0"/><path d="M439.9847,241.71046c1.74979,-0.01162 3.17795,1.43382 3.18986,3.22848c0.01192,1.79466 -1.39691,3.25895 -3.1467,3.27057c-1.74979,0.01162 -3.17795,-1.43382 -3.18986,-3.22848c-0.01192,-1.79466 1.39691,-3.25895 3.1467,-3.27056z" fill="#ffffff" stroke-width="0"/><path d="M439.54938,151.69759c1.74979,-0.01162 3.17795,1.43382 3.18986,3.22848c0.01192,1.79466 -1.39691,3.25895 -3.1467,3.27056c-1.74979,0.01162 -3.17795,-1.43382 -3.18986,-3.22848c-0.01192,-1.79466 1.39691,-3.25895 3.1467,-3.27057z" fill="#ffffff" stroke-width="0"/></g><g data-paper-data="{&quot;index&quot;:null}"><g><path d="M205.00126,260.31607l0.38271,58.64341l-165.04463,1.0771l-0.38271,-58.64341z" fill="#0048b7" stroke="none" stroke-width="0" stroke-linecap="butt"/><path d="M185.99779,262.7704l0.3523,53.983l-143.3074,0.93523l-0.3523,-53.983z" fill="#42ac00" stroke="none" stroke-width="0" stroke-linecap="butt"/><path d="M46.92382,317.27494l-0.04309,-6.60224l15.92305,-0.10392l0.15051,-7.76865l-15.34751,0.10017l-0.04309,-6.60225l15.53468,-0.10138l-0.82489,-7.3739l-15.53468,0.10138l-0.04309,-6.60224l15.34752,-0.10017l-0.25189,-7.76603l-15.92305,0.10392l-0.04308,-6.60224l31.84609,-0.20784" data-paper-data="{&quot;index&quot;:null}" fill="none" stroke="#ea8d00" stroke-width="4" stroke-linecap="round"/><path d="M144.12007,273.14166l0.21543,33.01119l-34.95302,0.22811l-0.21543,-33.01119z" fill="#000000" stroke="#000000" stroke-width="4" stroke-linecap="butt"/></g><text transform="translate(190.73522,265.63957) rotate(-0.33143) scale(0.11064,0.11064)" font-size="40" xml:space="preserve" fill="#ffffff" fill-rule="nonzero" stroke="none" stroke-width="1" stroke-linecap="butt" stroke-linejoin="miter" stroke-miterlimit="10" stroke-dasharray="" stroke-dashoffset="0" font-family="Sans Serif" font-weight="normal" text-anchor="start" style="mix-blend-mode: normal"><tspan x="0" dy="0">STATE</tspan><tspan x="0" dy="46.150000000000006px"> </tspan><tspan x="0" dy="46.150000000000006px">RXD</tspan><tspan x="0" dy="46.150000000000006px"> </tspan><tspan x="0" dy="46.150000000000006px">TXD</tspan><tspan x="0" dy="46.150000000000006px"> </tspan><tspan x="0" dy="46.150000000000006px">GND</tspan><tspan x="0" dy="46.150000000000006px"> </tspan><tspan x="0" dy="46.150000000000006px">VCC</tspan><tspan x="0" dy="46.150000000000006px"> </tspan><tspan x="0" dy="46.150000000000006px">EN</tspan></text></g><path d="M274.49073,176.37301l1.5,96l-71,1.5" fill="none" stroke="#ff9400" stroke-width="1.5" stroke-linecap="round"/><path d="M289.6844,175.87301l1.30634,107.5l-85.5,1.5" fill="none" stroke="#fbff00" stroke-width="1.5" stroke-linecap="round"/><g fill="none" stroke="#ff0000" stroke-width="1.5" stroke-linecap="round"><path d="M204.99074,294.87301l26.5,-0.5l-0.5,-58l132.5,-2"/><path d="M231.49074,236.37301l-38.5,1l-1,-60.5"/></g><g fill="none" stroke="#1dff00" stroke-width="1.5" stroke-linecap="round"><path d="M204.99074,306.37301l46.5,-0.5l-0.5,-83.5l112.5,-1.5"/><path d="M191.49073,91.6655v-10.5l139,-0.5v124.20751l-79.5,1.5v16"/></g><path d="M224.49073,91.61558v-19.5l115,-0.22239l0.5,137h23" fill="none" stroke="#00ff9b" stroke-width="1.5" stroke-linecap="round"/><path d="M216.49073,90.11558v-30l135.5,-0.72239v136l11.5,0.5" fill="none" stroke="#00ff9b" stroke-width="1.5" stroke-linecap="round"/><path d="M81.10906,67.73529l77.5,-0.23529l-0.5,24" fill="none" stroke="#0093ff" stroke-width="1.5" stroke-linecap="round"/><path d="M146.10906,49.90196l24.5,-0.40196l-0.57742,41" fill="none" stroke="#2400ff" stroke-width="1.5" stroke-linecap="round"/><g stroke="none" stroke-width="0" stroke-linecap="butt"><path d="M27.46091,40.59016l41.20845,-0.07335l0.06639,37.30075l-41.20845,0.07335z" fill="#bbbbbb"/><path d="M68.66873,40.16157l11.0126,-0.0196l0.06766,38.01124l-11.0126,0.0196z" fill="url(#color-1)"/></g><g fill="#000000" stroke-linecap="butt"><path d="M112.78481,45.12816v-1.97785h39.71519v1.97785z" stroke="none" stroke-width="0"/><path d="M132.56329,43.18987v-15.18987h12.97468v15.18987z" stroke="#2400ff" stroke-width="1.5"/><path d="M116.74051,53v-8.22785h31.32911v8.22785z" stroke="none" stroke-width="0"/></g><path d="M79.5,51h37" fill="none" stroke="#ca00ff" stroke-width="1" stroke-linecap="round"/></g></g></svg>